<svg xmlns="http://www.w3.org/2000/svg" viewBox="0 0 32 32" width="512" height="512" fill="none">
  <rect width="32" height="32" rx="7" fill="url(#bg-grad)" />
  <rect x="0.5" y="0.5" width="31" height="31" rx="6.5" stroke="url(#border-grad)" stroke-width="1" stroke-opacity="0.35" />
  
  <defs>
    <linearGradient id="bg-grad" x1="0" y1="0" x2="32" y2="32" gradientUnits="userSpaceOnUse">
      <stop offset="0%" stop-color="#0B0F19" />
      <stop offset="50%" stop-color="#111827" />
      <stop offset="100%" stop-color="#1E293B" />
    </linearGradient>
    <linearGradient id="border-grad" x1="0" y1="0" x2="32" y2="32" gradientUnits="userSpaceOnUse">
      <stop offset="0%" stop-color="#60A5FA" />
      <stop offset="100%" stop-color="#818CF8" />
    </linearGradient>
    <linearGradient id="accent-grad" x1="3" y1="2" x2="21" y2="22" gradientUnits="userSpaceOnUse">
      <stop offset="0%" stop-color="#38BDF8" />
      <stop offset="50%" stop-color="#60A5FA" />
      <stop offset="100%" stop-color="#818CF8" />
    </linearGradient>
  </defs>

  <g transform="translate(4.8, 4.8) scale(0.933)" fill="none" stroke="url(#accent-grad)" stroke-width="1.65">
    <!-- 3 workflow nodes -->
    <path d="M3 4c0-1.655.345-2 2-2h4c1.655 0 2 .345 2 2s-.345 2-2 2H5c-1.655 0-2-.345-2-2Zm10 9c0-1.655.345-2 2-2h4c1.655 0 2 .345 2 2s-.345 2-2 2h-4c-1.655 0-2-.345-2-2Zm-9 7c0-1.655.345-2 2-2h4c1.655 0 2 .345 2 2s-.345 2-2 2H6c-1.655 0-2-.345-2-2Z" />
    <!-- Connector pipelines -->
    <path stroke-linecap="round" stroke-linejoin="round" d="M17 11c0-.465 0-.697-.038-.89a2 2 0 0 0-1.572-1.572c-.193-.038-.425-.038-.89-.038h-5c-.465 0-.697 0-.89-.038A2 2 0 0 1 7.038 6.89C7 6.697 7 6.465 7 6m10 9v1c0 1.886 0 2.828-.586 3.414S14.886 20 13 20h-1" />
  </g>
</svg>
